# xmcd CD database file
#
# Track frame offsets:
#	150
#	12554
#	27037
#	51389
#	68355
#	84172
#	103741
#	118491
#	129102
#	147610
#
# Disc length: 2244 seconds
#
# Revision: 0
# Processed by: cddbd v1.5.2PL0 Copyright (c) Steve Scherf et al.
# Submitted via: CDex 1.51
#
DISCID=8508c20a
DTITLE=Yvonne Moore - Blue Wisdom
DYEAR=2012
DGENRE=Blues
TTITLE0=01 Danger Zone
TTITLE1=02 Sticks And Stones
TTITLE2=03 Come On In My Kitchen
TTITLE3=04 Take This Hammer
TTITLE4=05 Little Wheel Spin And Spin
TTITLE5=06 You Don´t Miss Your Water
TTITLE6=07 Timber
TTITLE7=08 God´s Gonna Cut You Down
TTITLE8=09 Hard Time Killing Floor Blues
TTITLE9=10 Cry Me A River
EXTD=YEAR: 2012
EXTT0=
EXTT1=
EXTT2=
EXTT3=
EXTT4=
EXTT5=
EXTT6=
EXTT7=
EXTT8=
EXTT9=
PLAYORDER=
